<svg version="1.0" xmlns="http://www.w3.org/2000/svg" xmlns:xlink="http://www.w3.org/1999/xlink"
	 viewBox="0 0 100 100" enable-background="new 0 0 100 100" xml:space="preserve">
	
<svg xmlns="http://www.w3.org/2000/svg" xmlns:xlink="http://www.w3.org/1999/xlink" version="1.1" width="100" height="100" viewBox="0 0 2000 2000" x="0" y="0" shape-rendering="crispEdges"><defs/><rect x="0" y="0" width="2000" height="2000" fill="#ffffff" fill-opacity="0%"/><svg viewBox="0 0 4 4" x="815" y="223" width="74" height="74" shape-rendering="auto"><path fill="#ffffff" d="M4,0H2A2,2,0,0,0,2,4H4Z"/></svg><svg viewBox="0 0 4 4" x="889" y="223" width="74" height="74" shape-rendering="auto"><path fill="#ffffff" d="M4,2V4H0V0H2A2,2,0,0,1,4,2Z"/></svg><svg viewBox="0 0 4 4" x="1111" y="223" width="74" height="74" shape-rendering="auto"><path fill="#ffffff" d="M4,4V2A2,2,0,0,0,0,2H0V4Z"/></svg><svg viewBox="0 0 4 4" x="815" y="297" width="74" height="74" shape-rendering="auto"><path fill="#ffffff" d="M4,2V0H2A2,2,0,0,1,4,2Z"/></svg><svg viewBox="0 0 4 4" x="889" y="297" width="74" height="74" shape-rendering="auto"><path fill="#ffffff" d="M0,0V2A2,2,0,0,0,4,2H4V0Z"/></svg><svg viewBox="0 0 4 4" x="1111" y="297" width="74" height="74" shape-rendering="auto"><rect fill="#ffffff" width="4" height="4"/></svg><svg viewBox="0 0 4 4" x="815" y="371" width="74" height="74" shape-rendering="auto"><path fill="#ffffff" d="M4,4V2A2,2,0,0,0,0,2H0V4Z"/></svg><svg viewBox="0 0 4 4" x="963" y="371" width="74" height="74" shape-rendering="auto"><path fill="#ffffff" d="M0,2A2,2,0,0,0,2,4H2A2,2,0,0,0,2,0H2A2,2,0,0,0,0,2Z"/></svg><svg viewBox="0 0 4 4" x="1111" y="371" width="74" height="74" shape-rendering="auto"><path fill="#ffffff" d="M0,0V2A2,2,0,0,0,4,2H4V0Z"/></svg><svg viewBox="0 0 4 4" x="815" y="445" width="74" height="74" shape-rendering="auto"><rect fill="#ffffff" width="4" height="4"/></svg><svg viewBox="0 0 4 4" x="889" y="445" width="74" height="74" shape-rendering="auto"><path fill="#ffffff" d="M0,2V4H2A2,2,0,0,1,0,2Z"/></svg><svg viewBox="0 0 4 4" x="963" y="445" width="74" height="74" shape-rendering="auto"><path fill="#ffffff" d="M2,4H4V2A2,2,0,0,1,2,4Z"/></svg><svg viewBox="0 0 4 4" x="1037" y="445" width="74" height="74" shape-rendering="auto"><path fill="#ffffff" d="M4,4V2A2,2,0,0,0,0,2H0V4Z"/></svg><svg viewBox="0 0 4 4" x="815" y="519" width="74" height="74" shape-rendering="auto"><path fill="#ffffff" d="M2,4H4V0H0V2A2,2,0,0,0,2,4Z"/></svg><svg viewBox="0 0 4 4" x="889" y="519" width="74" height="74" shape-rendering="auto"><rect fill="#ffffff" width="4" height="4"/></svg><svg viewBox="0 0 4 4" x="963" y="519" width="74" height="74" shape-rendering="auto"><rect fill="#ffffff" width="4" height="4"/></svg><svg viewBox="0 0 4 4" x="1037" y="519" width="74" height="74" shape-rendering="auto"><path fill="#ffffff" d="M2,4H0V0H4V2A2,2,0,0,1,2,4Z"/></svg><svg viewBox="0 0 4 4" x="815" y="667" width="74" height="74" shape-rendering="auto"><path fill="#ffffff" d="M0,2A2,2,0,0,0,2,4H2A2,2,0,0,0,2,0H2A2,2,0,0,0,0,2Z"/></svg><svg viewBox="0 0 4 4" x="889" y="667" width="74" height="74" shape-rendering="auto"><path fill="#ffffff" d="M2,4H4V2A2,2,0,0,1,2,4Z"/></svg><svg viewBox="0 0 4 4" x="963" y="667" width="74" height="74" shape-rendering="auto"><path fill="#ffffff" d="M4,4V2A2,2,0,0,0,0,2H0V4Z"/></svg><svg viewBox="0 0 4 4" x="1037" y="667" width="74" height="74" shape-rendering="auto"><path fill="#ffffff" d="M0,2V4H2A2,2,0,0,1,0,2Z"/></svg><svg viewBox="0 0 4 4" x="1111" y="667" width="74" height="74" shape-rendering="auto"><path fill="#ffffff" d="M0,2A2,2,0,0,0,2,4H2A2,2,0,0,0,2,0H2A2,2,0,0,0,0,2Z"/></svg><svg viewBox="0 0 4 4" x="889" y="741" width="74" height="74" shape-rendering="auto"><path fill="#ffffff" d="M4,0H2A2,2,0,0,0,2,4H4Z"/></svg><svg viewBox="0 0 4 4" x="963" y="741" width="74" height="74" shape-rendering="auto"><rect fill="#ffffff" width="4" height="4"/></svg><svg viewBox="0 0 4 4" x="1037" y="741" width="74" height="74" shape-rendering="auto"><path fill="#ffffff" d="M0,4H2A2,2,0,0,0,2,0H0Z"/></svg><svg viewBox="0 0 4 4" x="223" y="815" width="74" height="74" shape-rendering="auto"><path fill="#ffffff" d="M0,2V4H4V0H2A2,2,0,0,0,0,2Z"/></svg><svg viewBox="0 0 4 4" x="297" y="815" width="74" height="74" shape-rendering="auto"><rect fill="#ffffff" width="4" height="4"/></svg><svg viewBox="0 0 4 4" x="371" y="815" width="74" height="74" shape-rendering="auto"><rect fill="#ffffff" width="4" height="4"/></svg><svg viewBox="0 0 4 4" x="445" y="815" width="74" height="74" shape-rendering="auto"><path fill="#ffffff" d="M0,4H2A2,2,0,0,0,2,0H0Z"/></svg><svg viewBox="0 0 4 4" x="667" y="815" width="74" height="74" shape-rendering="auto"><path fill="#ffffff" d="M0,2A2,2,0,0,0,2,4H2A2,2,0,0,0,2,0H2A2,2,0,0,0,0,2Z"/></svg><svg viewBox="0 0 4 4" x="741" y="815" width="74" height="74" shape-rendering="auto"><path fill="#ffffff" d="M2,4H4V2A2,2,0,0,1,2,4Z"/></svg><svg viewBox="0 0 4 4" x="815" y="815" width="74" height="74" shape-rendering="auto"><path fill="#ffffff" d="M4,4V2A2,2,0,0,0,0,2H0V4Z"/></svg><svg viewBox="0 0 4 4" x="889" y="815" width="74" height="74" shape-rendering="auto"><path fill="#ffffff" d="M4,2V0H2A2,2,0,0,1,4,2Z"/></svg><svg viewBox="0 0 4 4" x="889" y="815" width="74" height="74" shape-rendering="auto"><path fill="#ffffff" d="M0,2V4H2A2,2,0,0,1,0,2Z"/></svg><svg viewBox="0 0 4 4" x="963" y="815" width="74" height="74" shape-rendering="auto"><path fill="#ffffff" d="M0,0V2A2,2,0,0,0,4,2H4V0Z"/></svg><svg viewBox="0 0 4 4" x="1037" y="815" width="74" height="74" shape-rendering="auto"><path fill="#ffffff" d="M0,2V0H2A2,2,0,0,0,0,2Z"/></svg><svg viewBox="0 0 4 4" x="1185" y="815" width="74" height="74" shape-rendering="auto"><path fill="#ffffff" d="M4,4V2A2,2,0,0,0,0,2H0V4Z"/></svg><svg viewBox="0 0 4 4" x="1259" y="815" width="74" height="74" shape-rendering="auto"><path fill="#ffffff" d="M0,2V4H2A2,2,0,0,1,0,2Z"/></svg><svg viewBox="0 0 4 4" x="1407" y="815" width="74" height="74" shape-rendering="auto"><path fill="#ffffff" d="M4,0H2A2,2,0,0,0,2,4H4Z"/></svg><svg viewBox="0 0 4 4" x="1481" y="815" width="74" height="74" shape-rendering="auto"><rect fill="#ffffff" width="4" height="4"/></svg><svg viewBox="0 0 4 4" x="1555" y="815" width="74" height="74" shape-rendering="auto"><path fill="#ffffff" d="M0,4H2A2,2,0,0,0,2,0H0Z"/></svg><svg viewBox="0 0 4 4" x="1703" y="815" width="74" height="74" shape-rendering="auto"><path fill="#ffffff" d="M0,2A2,2,0,0,0,2,4H2A2,2,0,0,0,2,0H2A2,2,0,0,0,0,2Z"/></svg><svg viewBox="0 0 4 4" x="223" y="889" width="74" height="74" shape-rendering="auto"><path fill="#ffffff" d="M0,0V2A2,2,0,0,0,4,2H4V0Z"/></svg><svg viewBox="0 0 4 4" x="297" y="889" width="74" height="74" shape-rendering="auto"><path fill="#ffffff" d="M0,2V0H2A2,2,0,0,0,0,2Z"/></svg><svg viewBox="0 0 4 4" x="297" y="889" width="74" height="74" shape-rendering="auto"><path fill="#ffffff" d="M4,2V0H2A2,2,0,0,1,4,2Z"/></svg><svg viewBox="0 0 4 4" x="371" y="889" width="74" height="74" shape-rendering="auto"><path fill="#ffffff" d="M0,0V2A2,2,0,0,0,4,2H4V0Z"/></svg><svg viewBox="0 0 4 4" x="445" y="889" width="74" height="74" shape-rendering="auto"><path fill="#ffffff" d="M0,2V0H2A2,2,0,0,0,0,2Z"/></svg><svg viewBox="0 0 4 4" x="593" y="889" width="74" height="74" shape-rendering="auto"><path fill="#ffffff" d="M0,2A2,2,0,0,0,2,4H2A2,2,0,0,0,2,0H2A2,2,0,0,0,0,2Z"/></svg><svg viewBox="0 0 4 4" x="667" y="889" width="74" height="74" shape-rendering="auto"><path fill="#ffffff" d="M2,4H4V2A2,2,0,0,1,2,4Z"/></svg><svg viewBox="0 0 4 4" x="741" y="889" width="74" height="74" shape-rendering="auto"><path fill="#ffffff" d="M0,2V4H4V0H2A2,2,0,0,0,0,2Z"/></svg><svg viewBox="0 0 4 4" x="815" y="889" width="74" height="74" shape-rendering="auto"><rect fill="#ffffff" width="4" height="4"/></svg><svg viewBox="0 0 4 4" x="889" y="889" width="74" height="74" shape-rendering="auto"><path fill="#ffffff" d="M0,4H2A2,2,0,0,0,2,0H0Z"/></svg><svg viewBox="0 0 4 4" x="1037" y="889" width="74" height="74" shape-rendering="auto"><path fill="#ffffff" d="M0,2A2,2,0,0,0,2,4H2A2,2,0,0,0,2,0H2A2,2,0,0,0,0,2Z"/></svg><svg viewBox="0 0 4 4" x="1185" y="889" width="74" height="74" shape-rendering="auto"><path fill="#ffffff" d="M2,4H4V0H0V2A2,2,0,0,0,2,4Z"/></svg><svg viewBox="0 0 4 4" x="1259" y="889" width="74" height="74" shape-rendering="auto"><path fill="#ffffff" d="M0,4H2A2,2,0,0,0,2,0H0Z"/></svg><svg viewBox="0 0 4 4" x="1407" y="889" width="74" height="74" shape-rendering="auto"><path fill="#ffffff" d="M4,2V0H2A2,2,0,0,1,4,2Z"/></svg><svg viewBox="0 0 4 4" x="1481" y="889" width="74" height="74" shape-rendering="auto"><rect fill="#ffffff" width="4" height="4"/></svg><svg viewBox="0 0 4 4" x="1555" y="889" width="74" height="74" shape-rendering="auto"><path fill="#ffffff" d="M0,2V0H2A2,2,0,0,0,0,2Z"/></svg><svg viewBox="0 0 4 4" x="1555" y="889" width="74" height="74" shape-rendering="auto"><path fill="#ffffff" d="M0,2V4H2A2,2,0,0,1,0,2Z"/></svg><svg viewBox="0 0 4 4" x="297" y="963" width="74" height="74" shape-rendering="auto"><path fill="#ffffff" d="M0,2A2,2,0,0,0,2,4H2A2,2,0,0,0,2,0H2A2,2,0,0,0,0,2Z"/></svg><svg viewBox="0 0 4 4" x="445" y="963" width="74" height="74" shape-rendering="auto"><path fill="#ffffff" d="M4,0H2A2,2,0,0,0,2,4H4Z"/></svg><svg viewBox="0 0 4 4" x="519" y="963" width="74" height="74" shape-rendering="auto"><path fill="#ffffff" d="M0,4H2A2,2,0,0,0,2,0H0Z"/></svg><svg viewBox="0 0 4 4" x="667" y="963" width="74" height="74" shape-rendering="auto"><path fill="#ffffff" d="M4,0H2A2,2,0,0,0,2,4H4Z"/></svg><svg viewBox="0 0 4 4" x="741" y="963" width="74" height="74" shape-rendering="auto"><path fill="#ffffff" d="M2,4H0V0H4V2A2,2,0,0,1,2,4Z"/></svg><svg viewBox="0 0 4 4" x="815" y="963" width="74" height="74" shape-rendering="auto"><path fill="#ffffff" d="M0,2V0H2A2,2,0,0,0,0,2Z"/></svg><svg viewBox="0 0 4 4" x="963" y="963" width="74" height="74" shape-rendering="auto"><path fill="#ffffff" d="M0,2A2,2,0,0,0,2,4H2A2,2,0,0,0,2,0H2A2,2,0,0,0,0,2Z"/></svg><svg viewBox="0 0 4 4" x="1111" y="963" width="74" height="74" shape-rendering="auto"><path fill="#ffffff" d="M0,2A2,2,0,0,0,2,4H2A2,2,0,0,0,2,0H2A2,2,0,0,0,0,2Z"/></svg><svg viewBox="0 0 4 4" x="1481" y="963" width="74" height="74" shape-rendering="auto"><rect fill="#ffffff" width="4" height="4"/></svg><svg viewBox="0 0 4 4" x="1555" y="963" width="74" height="74" shape-rendering="auto"><rect fill="#ffffff" width="4" height="4"/></svg><svg viewBox="0 0 4 4" x="1629" y="963" width="74" height="74" shape-rendering="auto"><path fill="#ffffff" d="M4,2V4H0V0H2A2,2,0,0,1,4,2Z"/></svg><svg viewBox="0 0 4 4" x="223" y="1037" width="74" height="74" shape-rendering="auto"><path fill="#ffffff" d="M0,2A2,2,0,0,0,2,4H2A2,2,0,0,0,2,0H2A2,2,0,0,0,0,2Z"/></svg><svg viewBox="0 0 4 4" x="519" y="1037" width="74" height="74" shape-rendering="auto"><path fill="#ffffff" d="M2,4H4V2A2,2,0,0,1,2,4Z"/></svg><svg viewBox="0 0 4 4" x="593" y="1037" width="74" height="74" shape-rendering="auto"><path fill="#ffffff" d="M4,4V2A2,2,0,0,0,0,2H0V4Z"/></svg><svg viewBox="0 0 4 4" x="667" y="1037" width="74" height="74" shape-rendering="auto"><path fill="#ffffff" d="M0,2V4H2A2,2,0,0,1,0,2Z"/></svg><svg viewBox="0 0 4 4" x="889" y="1037" width="74" height="74" shape-rendering="auto"><path fill="#ffffff" d="M4,4V2A2,2,0,0,0,0,2H0V4Z"/></svg><svg viewBox="0 0 4 4" x="1037" y="1037" width="74" height="74" shape-rendering="auto"><path fill="#ffffff" d="M0,2A2,2,0,0,0,2,4H2A2,2,0,0,0,2,0H2A2,2,0,0,0,0,2Z"/></svg><svg viewBox="0 0 4 4" x="1333" y="1037" width="74" height="74" shape-rendering="auto"><path fill="#ffffff" d="M4,4V2A2,2,0,0,0,0,2H0V4Z"/></svg><svg viewBox="0 0 4 4" x="1407" y="1037" width="74" height="74" shape-rendering="auto"><path fill="#ffffff" d="M0,2V4H2A2,2,0,0,1,0,2Z"/></svg><svg viewBox="0 0 4 4" x="1481" y="1037" width="74" height="74" shape-rendering="auto"><path fill="#ffffff" d="M0,0V2A2,2,0,0,0,4,2H4V0Z"/></svg><svg viewBox="0 0 4 4" x="1555" y="1037" width="74" height="74" shape-rendering="auto"><path fill="#ffffff" d="M0,2V0H2A2,2,0,0,0,0,2Z"/></svg><svg viewBox="0 0 4 4" x="1555" y="1037" width="74" height="74" shape-rendering="auto"><path fill="#ffffff" d="M4,2V0H2A2,2,0,0,1,4,2Z"/></svg><svg viewBox="0 0 4 4" x="1629" y="1037" width="74" height="74" shape-rendering="auto"><path fill="#ffffff" d="M0,0V2A2,2,0,0,0,4,2H4V0Z"/></svg><svg viewBox="0 0 4 4" x="297" y="1111" width="74" height="74" shape-rendering="auto"><path fill="#ffffff" d="M4,0H2A2,2,0,0,0,2,4H4Z"/></svg><svg viewBox="0 0 4 4" x="371" y="1111" width="74" height="74" shape-rendering="auto"><rect fill="#ffffff" width="4" height="4"/></svg><svg viewBox="0 0 4 4" x="445" y="1111" width="74" height="74" shape-rendering="auto"><rect fill="#ffffff" width="4" height="4"/></svg><svg viewBox="0 0 4 4" x="519" y="1111" width="74" height="74" shape-rendering="auto"><rect fill="#ffffff" width="4" height="4"/></svg><svg viewBox="0 0 4 4" x="593" y="1111" width="74" height="74" shape-rendering="auto"><rect fill="#ffffff" width="4" height="4"/></svg><svg viewBox="0 0 4 4" x="667" y="1111" width="74" height="74" shape-rendering="auto"><path fill="#ffffff" d="M0,4H2A2,2,0,0,0,2,0H0Z"/></svg><svg viewBox="0 0 4 4" x="815" y="1111" width="74" height="74" shape-rendering="auto"><path fill="#ffffff" d="M2,4H4V2A2,2,0,0,1,2,4Z"/></svg><svg viewBox="0 0 4 4" x="889" y="1111" width="74" height="74" shape-rendering="auto"><rect fill="#ffffff" width="4" height="4"/></svg><svg viewBox="0 0 4 4" x="1333" y="1111" width="74" height="74" shape-rendering="auto"><path fill="#ffffff" d="M2,4H4V0H0V2A2,2,0,0,0,2,4Z"/></svg><svg viewBox="0 0 4 4" x="1407" y="1111" width="74" height="74" shape-rendering="auto"><path fill="#ffffff" d="M0,4H2A2,2,0,0,0,2,0H0Z"/></svg><svg viewBox="0 0 4 4" x="815" y="1185" width="74" height="74" shape-rendering="auto"><path fill="#ffffff" d="M4,0H2A2,2,0,0,0,2,4H4Z"/></svg><svg viewBox="0 0 4 4" x="889" y="1185" width="74" height="74" shape-rendering="auto"><path fill="#ffffff" d="M2,4H0V0H4V2A2,2,0,0,1,2,4Z"/></svg><svg viewBox="0 0 4 4" x="1111" y="1185" width="74" height="74" shape-rendering="auto"><path fill="#ffffff" d="M0,2A2,2,0,0,0,2,4H2A2,2,0,0,0,2,0H2A2,2,0,0,0,0,2Z"/></svg><svg viewBox="0 0 4 4" x="1481" y="1185" width="74" height="74" shape-rendering="auto"><path fill="#ffffff" d="M4,0H2A2,2,0,0,0,2,4H4Z"/></svg><svg viewBox="0 0 4 4" x="1555" y="1185" width="74" height="74" shape-rendering="auto"><path fill="#ffffff" d="M0,4H2A2,2,0,0,0,2,0H0Z"/></svg><svg viewBox="0 0 4 4" x="1703" y="1185" width="74" height="74" shape-rendering="auto"><path fill="#ffffff" d="M0,2A2,2,0,0,0,2,4H2A2,2,0,0,0,2,0H2A2,2,0,0,0,0,2Z"/></svg><svg viewBox="0 0 4 4" x="963" y="1259" width="74" height="74" shape-rendering="auto"><path fill="#ffffff" d="M0,2A2,2,0,0,0,2,4H2A2,2,0,0,0,2,0H2A2,2,0,0,0,0,2Z"/></svg><svg viewBox="0 0 4 4" x="1185" y="1259" width="74" height="74" shape-rendering="auto"><path fill="#ffffff" d="M2,4H4V2A2,2,0,0,1,2,4Z"/></svg><svg viewBox="0 0 4 4" x="1259" y="1259" width="74" height="74" shape-rendering="auto"><path fill="#ffffff" d="M4,4V2A2,2,0,0,0,0,2H0V4Z"/></svg><svg viewBox="0 0 4 4" x="1333" y="1259" width="74" height="74" shape-rendering="auto"><path fill="#ffffff" d="M0,2V4H2A2,2,0,0,1,0,2Z"/></svg><svg viewBox="0 0 4 4" x="889" y="1333" width="74" height="74" shape-rendering="auto"><path fill="#ffffff" d="M0,2A2,2,0,0,0,2,4H2A2,2,0,0,0,2,0H2A2,2,0,0,0,0,2Z"/></svg><svg viewBox="0 0 4 4" x="1037" y="1333" width="74" height="74" shape-rendering="auto"><path fill="#ffffff" d="M0,2V4H4V0H2A2,2,0,0,0,0,2Z"/></svg><svg viewBox="0 0 4 4" x="1111" y="1333" width="74" height="74" shape-rendering="auto"><rect fill="#ffffff" width="4" height="4"/></svg><svg viewBox="0 0 4 4" x="1185" y="1333" width="74" height="74" shape-rendering="auto"><rect fill="#ffffff" width="4" height="4"/></svg><svg viewBox="0 0 4 4" x="1259" y="1333" width="74" height="74" shape-rendering="auto"><rect fill="#ffffff" width="4" height="4"/></svg><svg viewBox="0 0 4 4" x="1333" y="1333" width="74" height="74" shape-rendering="auto"><path fill="#ffffff" d="M0,4H2A2,2,0,0,0,2,0H0Z"/></svg><svg viewBox="0 0 4 4" x="1703" y="1333" width="74" height="74" shape-rendering="auto"><path fill="#ffffff" d="M0,2A2,2,0,0,0,2,4H2A2,2,0,0,0,2,0H2A2,2,0,0,0,0,2Z"/></svg><svg viewBox="0 0 4 4" x="963" y="1407" width="74" height="74" shape-rendering="auto"><path fill="#ffffff" d="M2,4H4V2A2,2,0,0,1,2,4Z"/></svg><svg viewBox="0 0 4 4" x="1037" y="1407" width="74" height="74" shape-rendering="auto"><rect fill="#ffffff" width="4" height="4"/></svg><svg viewBox="0 0 4 4" x="1111" y="1407" width="74" height="74" shape-rendering="auto"><rect fill="#ffffff" width="4" height="4"/></svg><svg viewBox="0 0 4 4" x="1185" y="1407" width="74" height="74" shape-rendering="auto"><rect fill="#ffffff" width="4" height="4"/></svg><svg viewBox="0 0 4 4" x="1259" y="1407" width="74" height="74" shape-rendering="auto"><rect fill="#ffffff" width="4" height="4"/></svg><svg viewBox="0 0 4 4" x="1333" y="1407" width="74" height="74" shape-rendering="auto"><path fill="#ffffff" d="M0,2V0H2A2,2,0,0,0,0,2Z"/></svg><svg viewBox="0 0 4 4" x="1333" y="1407" width="74" height="74" shape-rendering="auto"><path fill="#ffffff" d="M0,2V4H2A2,2,0,0,1,0,2Z"/></svg><svg viewBox="0 0 4 4" x="1407" y="1407" width="74" height="74" shape-rendering="auto"><path fill="#ffffff" d="M4,0H2A2,2,0,0,0,2,4H4Z"/></svg><svg viewBox="0 0 4 4" x="1481" y="1407" width="74" height="74" shape-rendering="auto"><path fill="#ffffff" d="M0,4H2A2,2,0,0,0,2,0H0Z"/></svg><svg viewBox="0 0 4 4" x="815" y="1481" width="74" height="74" shape-rendering="auto"><path fill="#ffffff" d="M0,2V4H4V0H2A2,2,0,0,0,0,2Z"/></svg><svg viewBox="0 0 4 4" x="889" y="1481" width="74" height="74" shape-rendering="auto"><rect fill="#ffffff" width="4" height="4"/></svg><svg viewBox="0 0 4 4" x="963" y="1481" width="74" height="74" shape-rendering="auto"><rect fill="#ffffff" width="4" height="4"/></svg><svg viewBox="0 0 4 4" x="1037" y="1481" width="74" height="74" shape-rendering="auto"><rect fill="#ffffff" width="4" height="4"/></svg><svg viewBox="0 0 4 4" x="1111" y="1481" width="74" height="74" shape-rendering="auto"><path fill="#ffffff" d="M0,2V0H2A2,2,0,0,0,0,2Z"/></svg><svg viewBox="0 0 4 4" x="1111" y="1481" width="74" height="74" shape-rendering="auto"><path fill="#ffffff" d="M4,2V0H2A2,2,0,0,1,4,2Z"/></svg><svg viewBox="0 0 4 4" x="1111" y="1481" width="74" height="74" shape-rendering="auto"><path fill="#ffffff" d="M0,2V4H2A2,2,0,0,1,0,2Z"/></svg><svg viewBox="0 0 4 4" x="1185" y="1481" width="74" height="74" shape-rendering="auto"><path fill="#ffffff" d="M2,4H4V0H0V2A2,2,0,0,0,2,4Z"/></svg><svg viewBox="0 0 4 4" x="1259" y="1481" width="74" height="74" shape-rendering="auto"><rect fill="#ffffff" width="4" height="4"/></svg><svg viewBox="0 0 4 4" x="1333" y="1481" width="74" height="74" shape-rendering="auto"><path fill="#ffffff" d="M0,4H2A2,2,0,0,0,2,0H0Z"/></svg><svg viewBox="0 0 4 4" x="1481" y="1481" width="74" height="74" shape-rendering="auto"><path fill="#ffffff" d="M2,4H4V2A2,2,0,0,1,2,4Z"/></svg><svg viewBox="0 0 4 4" x="1555" y="1481" width="74" height="74" shape-rendering="auto"><path fill="#ffffff" d="M4,4V2A2,2,0,0,0,0,2H0V4Z"/></svg><svg viewBox="0 0 4 4" x="815" y="1555" width="74" height="74" shape-rendering="auto"><rect fill="#ffffff" width="4" height="4"/></svg><svg viewBox="0 0 4 4" x="889" y="1555" width="74" height="74" shape-rendering="auto"><path fill="#ffffff" d="M0,2V0H2A2,2,0,0,0,0,2Z"/></svg><svg viewBox="0 0 4 4" x="889" y="1555" width="74" height="74" shape-rendering="auto"><path fill="#ffffff" d="M0,2V4H2A2,2,0,0,1,0,2Z"/></svg><svg viewBox="0 0 4 4" x="963" y="1555" width="74" height="74" shape-rendering="auto"><path fill="#ffffff" d="M4,2V0H2A2,2,0,0,1,4,2Z"/></svg><svg viewBox="0 0 4 4" x="1037" y="1555" width="74" height="74" shape-rendering="auto"><rect fill="#ffffff" width="4" height="4"/></svg><svg viewBox="0 0 4 4" x="1111" y="1555" width="74" height="74" shape-rendering="auto"><path fill="#ffffff" d="M4,2V4H0V0H2A2,2,0,0,1,4,2Z"/></svg><svg viewBox="0 0 4 4" x="1185" y="1555" width="74" height="74" shape-rendering="auto"><path fill="#ffffff" d="M4,2V0H2A2,2,0,0,1,4,2Z"/></svg><svg viewBox="0 0 4 4" x="1259" y="1555" width="74" height="74" shape-rendering="auto"><rect fill="#ffffff" width="4" height="4"/></svg><svg viewBox="0 0 4 4" x="1333" y="1555" width="74" height="74" shape-rendering="auto"><path fill="#ffffff" d="M0,2V0H2A2,2,0,0,0,0,2Z"/></svg><svg viewBox="0 0 4 4" x="1407" y="1555" width="74" height="74" shape-rendering="auto"><path fill="#ffffff" d="M2,4H4V2A2,2,0,0,1,2,4Z"/></svg><svg viewBox="0 0 4 4" x="1481" y="1555" width="74" height="74" shape-rendering="auto"><path fill="#ffffff" d="M0,2V4H4V0H2A2,2,0,0,0,0,2Z"/></svg><svg viewBox="0 0 4 4" x="1555" y="1555" width="74" height="74" shape-rendering="auto"><path fill="#ffffff" d="M2,4H0V0H4V2A2,2,0,0,1,2,4Z"/></svg><svg viewBox="0 0 4 4" x="815" y="1629" width="74" height="74" shape-rendering="auto"><rect fill="#ffffff" width="4" height="4"/></svg><svg viewBox="0 0 4 4" x="889" y="1629" width="74" height="74" shape-rendering="auto"><path fill="#ffffff" d="M4,2V4H0V0H2A2,2,0,0,1,4,2Z"/></svg><svg viewBox="0 0 4 4" x="963" y="1629" width="74" height="74" shape-rendering="auto"><path fill="#ffffff" d="M2,4H4V2A2,2,0,0,1,2,4Z"/></svg><svg viewBox="0 0 4 4" x="963" y="1629" width="74" height="74" shape-rendering="auto"><path fill="#ffffff" d="M0,2V4H2A2,2,0,0,1,0,2Z"/></svg><svg viewBox="0 0 4 4" x="1037" y="1629" width="74" height="74" shape-rendering="auto"><rect fill="#ffffff" width="4" height="4"/></svg><svg viewBox="0 0 4 4" x="1111" y="1629" width="74" height="74" shape-rendering="auto"><rect fill="#ffffff" width="4" height="4"/></svg><svg viewBox="0 0 4 4" x="1185" y="1629" width="74" height="74" shape-rendering="auto"><path fill="#ffffff" d="M0,2V4H2A2,2,0,0,1,0,2Z"/></svg><svg viewBox="0 0 4 4" x="1259" y="1629" width="74" height="74" shape-rendering="auto"><path fill="#ffffff" d="M0,0V2A2,2,0,0,0,4,2H4V0Z"/></svg><svg viewBox="0 0 4 4" x="1407" y="1629" width="74" height="74" shape-rendering="auto"><path fill="#ffffff" d="M4,0H2A2,2,0,0,0,2,4H4Z"/></svg><svg viewBox="0 0 4 4" x="1481" y="1629" width="74" height="74" shape-rendering="auto"><rect fill="#ffffff" width="4" height="4"/></svg><svg viewBox="0 0 4 4" x="1555" y="1629" width="74" height="74" shape-rendering="auto"><path fill="#ffffff" d="M0,2V0H2A2,2,0,0,0,0,2Z"/></svg><svg viewBox="0 0 4 4" x="1629" y="1629" width="74" height="74" shape-rendering="auto"><path fill="#ffffff" d="M0,2A2,2,0,0,0,2,4H2A2,2,0,0,0,2,0H2A2,2,0,0,0,0,2Z"/></svg><svg viewBox="0 0 4 4" x="815" y="1703" width="74" height="74" shape-rendering="auto"><path fill="#ffffff" d="M2,4H4V0H0V2A2,2,0,0,0,2,4Z"/></svg><svg viewBox="0 0 4 4" x="889" y="1703" width="74" height="74" shape-rendering="auto"><rect fill="#ffffff" width="4" height="4"/></svg><svg viewBox="0 0 4 4" x="963" y="1703" width="74" height="74" shape-rendering="auto"><rect fill="#ffffff" width="4" height="4"/></svg><svg viewBox="0 0 4 4" x="1037" y="1703" width="74" height="74" shape-rendering="auto"><rect fill="#ffffff" width="4" height="4"/></svg><svg viewBox="0 0 4 4" x="1111" y="1703" width="74" height="74" shape-rendering="auto"><rect fill="#ffffff" width="4" height="4"/></svg><svg viewBox="0 0 4 4" x="1185" y="1703" width="74" height="74" shape-rendering="auto"><path fill="#ffffff" d="M0,4H2A2,2,0,0,0,2,0H0Z"/></svg><svg viewBox="0 0 4 4" x="1333" y="1703" width="74" height="74" shape-rendering="auto"><path fill="#ffffff" d="M0,2A2,2,0,0,0,2,4H2A2,2,0,0,0,2,0H2A2,2,0,0,0,0,2Z"/></svg><svg viewBox="0 0 4 4" x="1407" y="1703" width="74" height="74" shape-rendering="auto"><path fill="#ffffff" d="M4,2V0H2A2,2,0,0,1,4,2Z"/></svg><svg viewBox="0 0 4 4" x="1481" y="1703" width="74" height="74" shape-rendering="auto"><path fill="#ffffff" d="M0,0V2A2,2,0,0,0,4,2H4V0Z"/></svg><svg version="1.1" id="Ebene_1" x="223" y="223" viewBox="0 0 700 700" style="enable-background:new 0 0 700 700;" xml:space="preserve" width="518" height="518" shape-rendering="auto">

<path fill="#ffffff" d="M21.2-0.1C9.5-0.1-0.1,9.5-0.1,21.2v78.8v100v100v100v100v100v78.8c0,11.7,9.5,21.3,21.3,21.3h657.6  c11.7,0,21.3-9.5,21.3-21.3V600V500V400V300V200v-100V21.2c0-11.7-9.5-21.3-21.3-21.3H21.2z M600,200v100v100v100v87.8  c0,6.8-5.5,12.2-12.2,12.2H112.2c-6.8,0-12.2-5.5-12.2-12.2V500V400V300V200v-87.8c0-6.8,5.5-12.2,12.2-12.2h475.6  c6.8,0,12.2,5.5,12.2,12.2V200z"/>
</svg>
<svg version="1.1" id="Ebene_1" x="223" y="223" viewBox="0 0 700 700" style="enable-background:new 0 0 700 700;" xml:space="preserve" width="518" height="518" shape-rendering="auto">

<path fill="#ffffff" d="M500,400V300v-78.8c0-11.7-9.5-21.3-21.3-21.3H221.2c-11.7,0-21.3,9.5-21.3,21.3V300v100v78.8    c0,11.7,9.5,21.3,21.3,21.3h257.5c11.7,0,21.3-9.5,21.3-21.3V400z"/>
</svg>
<svg version="1.1" id="Ebene_1" x="1259" y="223" viewBox="0 0 700 700" style="enable-background:new 0 0 700 700;" xml:space="preserve" width="518" height="518" shape-rendering="auto">

<path fill="#ffffff" d="M21.2-0.1C9.5-0.1-0.1,9.5-0.1,21.2v78.8v100v100v100v100v100v78.8c0,11.7,9.5,21.3,21.3,21.3h657.6  c11.7,0,21.3-9.5,21.3-21.3V600V500V400V300V200v-100V21.2c0-11.7-9.5-21.3-21.3-21.3H21.2z M600,200v100v100v100v87.8  c0,6.8-5.5,12.2-12.2,12.2H112.2c-6.8,0-12.2-5.5-12.2-12.2V500V400V300V200v-87.8c0-6.8,5.5-12.2,12.2-12.2h475.6  c6.8,0,12.2,5.5,12.2,12.2V200z"/>
</svg>
<svg version="1.1" id="Ebene_1" x="1259" y="223" viewBox="0 0 700 700" style="enable-background:new 0 0 700 700;" xml:space="preserve" width="518" height="518" shape-rendering="auto">

<path fill="#ffffff" d="M500,400V300v-78.8c0-11.7-9.5-21.3-21.3-21.3H221.2c-11.7,0-21.3,9.5-21.3,21.3V300v100v78.8    c0,11.7,9.5,21.3,21.3,21.3h257.5c11.7,0,21.3-9.5,21.3-21.3V400z"/>
</svg>
<svg version="1.1" id="Ebene_1" x="223" y="1259" viewBox="0 0 700 700" style="enable-background:new 0 0 700 700;" xml:space="preserve" width="518" height="518" shape-rendering="auto">

<path fill="#ffffff" d="M21.2-0.1C9.5-0.1-0.1,9.5-0.1,21.2v78.8v100v100v100v100v100v78.8c0,11.7,9.5,21.3,21.3,21.3h657.6  c11.7,0,21.3-9.5,21.3-21.3V600V500V400V300V200v-100V21.2c0-11.7-9.5-21.3-21.3-21.3H21.2z M600,200v100v100v100v87.8  c0,6.8-5.5,12.2-12.2,12.2H112.2c-6.8,0-12.2-5.5-12.2-12.2V500V400V300V200v-87.8c0-6.8,5.5-12.2,12.2-12.2h475.6  c6.8,0,12.2,5.5,12.2,12.2V200z"/>
</svg>
<svg version="1.1" id="Ebene_1" x="223" y="1259" viewBox="0 0 700 700" style="enable-background:new 0 0 700 700;" xml:space="preserve" width="518" height="518" shape-rendering="auto">

<path fill="#ffffff" d="M500,400V300v-78.8c0-11.7-9.5-21.3-21.3-21.3H221.2c-11.7,0-21.3,9.5-21.3,21.3V300v100v78.8    c0,11.7,9.5,21.3,21.3,21.3h257.5c11.7,0,21.3-9.5,21.3-21.3V400z"/>
</svg>
</svg>

</svg>
